<svg width="512" height="512" viewBox="0 0 512 512" fill="none" xmlns="http://www.w3.org/2000/svg">
  <rect width="512" height="512" rx="64" fill="#2563eb"/>
  <g transform="translate(96, 96)">
    <!-- Advisory board icon with three people -->
    <circle cx="160" cy="120" r="40" fill="white" opacity="0.9"/>
    <circle cx="100" cy="160" r="35" fill="white" opacity="0.8"/>
    <circle cx="220" cy="160" r="35" fill="white" opacity="0.8"/>

    <!-- Bodies -->
    <ellipse cx="160" cy="220" rx="45" ry="55" fill="white" opacity="0.9"/>
    <ellipse cx="100" cy="250" rx="40" ry="50" fill="white" opacity="0.8"/>
    <ellipse cx="220" cy="250" rx="40" ry="50" fill="white" opacity="0.8"/>

    <!-- Chat bubble -->
    <path d="M50 50 L150 50 A20 20 0 0 1 170 70 L170 110 A20 20 0 0 1 150 130 L80 130 L50 150 Z" fill="white" opacity="0.3"/>

    <!-- Text lines in bubble -->
    <rect x="70" y="70" width="60" height="4" rx="2" fill="#2563eb" opacity="0.6"/>
    <rect x="70" y="85" width="40" height="4" rx="2" fill="#2563eb" opacity="0.6"/>
    <rect x="70" y="100" width="50" height="4" rx="2" fill="#2563eb" opacity="0.6"/>
  </g>
</svg>